<?xml version="1.0" standalone="no"?>
<!DOCTYPE svg PUBLIC "-//W3C//DTD SVG 20010904//EN"
 "http://www.w3.org/TR/2001/REC-SVG-20010904/DTD/svg10.dtd">
<svg version="1.0" xmlns="http://www.w3.org/2000/svg"
 width="760.000000pt" height="760.000000pt" viewBox="0 0 760.000000 760.000000"
 preserveAspectRatio="xMidYMid meet">
<metadata>
Created by potrace 1.14, written by Peter Selinger 2001-2017
</metadata>
<g transform="translate(0.000000,760.000000) scale(0.100000,-0.100000)"
fill="#000000" stroke="none">
<path d="M3418 7575 c-2 -2 -75 -6 -163 -9 -159 -7 -185 -8 -340 -21 -153 -12
-239 -20 -290 -28 -16 -3 -52 -8 -80 -12 -118 -15 -212 -36 -305 -67 -36 -12
-68 -21 -72 -20 -5 1 -8 -3 -8 -8 0 -6 -6 -10 -14 -10 -16 0 -165 -73 -256
-125 -36 -21 -81 -46 -100 -57 -153 -86 -309 -186 -403 -257 -62 -46 -114 -87
-117 -90 -3 -3 -30 -26 -60 -51 -30 -25 -57 -47 -60 -50 -3 -3 -25 -21 -50
-40 -25 -19 -47 -37 -50 -40 -3 -3 -30 -25 -60 -50 -30 -25 -56 -48 -58 -52
-2 -5 -10 -8 -17 -8 -7 0 -15 -4 -17 -8 -2 -5 -28 -28 -58 -53 -30 -25 -64
-52 -75 -61 -11 -10 -60 -50 -110 -89 -360 -290 -390 -317 -470 -419 -59 -76
-137 -234 -151 -305 -29 -151 -32 -181 -29 -295 2 -76 9 -147 19 -180 9 -30
18 -62 20 -70 19 -71 91 -210 149 -285 4 -5 21 -28 37 -50 16 -22 36 -47 43
-55 8 -8 28 -35 44 -60 17 -25 41 -55 52 -67 12 -12 21 -25 21 -28 0 -4 24
-37 52 -74 29 -37 61 -78 71 -92 9 -13 63 -85 120 -160 56 -75 111 -149 122
-164 117 -156 160 -211 167 -213 4 -2 8 -8 8 -14 0 -6 17 -31 38 -57 61 -73
119 -164 129 -201 10 -37 10 -89 -1 -180 -4 -30 -9 -75 -12 -100 -3 -25 -7
-56 -9 -70 -2 -14 -7 -74 -10 -135 -4 -60 -8 -111 -10 -114 -2 -2 0 -12 6 -22
6 -13 6 -19 0 -19 -6 0 -9 -6 -6 -12 3 -11 8 -58 20 -219 1 -14 4 -30 6 -35
16 -29 9 -76 -16 -108 -37 -49 -82 -147 -91 -197 -14 -79 -8 -219 13 -324 3
-16 7 -41 9 -55 1 -14 5 -43 7 -65 5 -35 25 -152 32 -180 6 -25 48 -117 68
-150 42 -69 186 -177 252 -190 11 -2 20 -4 20 -5 0 -14 156 -17 205 -5 25 7
53 11 62 9 9 -1 42 -27 73 -57 55 -53 56 -56 50 -98 -6 -52 -7 -148 0 -204 10
-91 70 -200 153 -277 85 -78 412 -292 467 -305 5 -1 30 -7 55 -14 44 -11 124
-13 165 -5 84 17 113 30 197 87 32 22 64 39 71 39 7 0 51 -16 97 -36 47 -19
92 -38 100 -41 74 -26 84 -38 97 -108 8 -46 77 -167 121 -212 68 -69 96 -88
184 -125 49 -20 72 -22 304 -24 272 -3 320 3 415 52 102 54 200 177 235 294 9
30 21 65 26 77 10 20 62 48 82 44 5 -1 17 6 27 15 11 9 19 15 19 12 0 -3 34 9
76 27 l77 34 53 -41 c30 -22 84 -53 121 -68 60 -24 79 -27 168 -26 95 1 104 3
185 43 134 65 390 239 453 308 33 36 83 119 101 165 27 72 34 172 20 278 l-6
54 54 52 c30 29 61 55 70 58 8 4 39 1 69 -6 72 -16 198 -10 234 12 6 4 16 7
22 8 17 3 105 57 139 86 43 37 105 126 129 187 20 49 43 154 51 231 1 14 3 25
4 25 0 0 3 18 5 40 3 21 7 55 10 75 15 88 17 110 19 190 3 106 -25 204 -84
293 -39 58 -41 64 -35 116 4 31 9 59 11 63 3 4 7 54 9 110 3 57 7 112 9 123 2
11 -1 26 -7 33 -6 8 -6 12 2 12 7 0 9 5 6 10 -3 6 -8 43 -10 83 -3 63 -7 102
-21 222 -16 130 -20 228 -11 265 7 33 96 171 127 200 3 3 17 21 30 40 13 19
27 37 30 40 3 3 25 32 49 65 25 33 48 62 53 63 4 2 8 8 8 13 0 10 9 22 40 57
8 10 23 30 33 45 10 16 25 36 33 45 12 15 188 249 239 318 11 15 32 43 47 63
15 20 31 41 35 46 90 118 187 250 209 285 16 25 32 47 35 50 6 5 33 62 70 148
11 24 28 87 39 140 29 143 22 297 -23 477 -8 30 -55 136 -79 178 -15 26 -28
52 -28 57 0 6 -4 10 -8 10 -4 0 -15 12 -24 28 -30 49 -145 159 -252 242 -10 8
-35 29 -55 45 -20 17 -58 48 -86 70 -58 47 -59 47 -150 121 -38 31 -81 66 -95
77 -40 35 -84 70 -120 97 -18 14 -38 30 -44 35 -10 10 -230 191 -251 207 -5 4
-39 31 -75 60 -86 70 -77 63 -145 111 -33 24 -86 59 -119 78 -32 18 -75 44
-95 57 -20 12 -54 32 -76 44 -22 12 -49 28 -60 35 -11 7 -28 16 -37 19 -10 3
-18 9 -18 13 0 3 -15 13 -32 20 -18 8 -55 28 -83 44 -27 16 -51 29 -53 28 -1
-1 -15 5 -30 13 -89 46 -278 110 -362 122 -19 3 -42 7 -50 9 -8 2 -42 7 -75
11 -33 3 -62 7 -65 9 -3 2 -39 6 -80 10 -41 4 -88 8 -104 10 -31 4 -198 16
-263 20 -24 1 -46 4 -49 8 -4 3 -14 2 -24 -3 -10 -5 -20 -6 -24 -3 -3 4 -45 8
-94 11 -105 5 -929 12 -934 7z"/>
</g>
</svg>
